<svg xmlns="http://www.w3.org/2000/svg" xmlns:xlink="http://www.w3.org/1999/xlink" width="276.651" height="90.272" viewBox="0 0 276.651 90.272"><defs><clipPath id="a"><rect width="276.651" height="90.272" fill="none"/></clipPath></defs><g clip-path="url(#a)"><path d="M44.607,0Q46.8,0,48.98.214t4.33.642q2.15.428,4.246,1.064T61.678,3.4q2.024.839,3.958,1.872t3.755,2.251q1.821,1.217,3.516,2.607t3.243,2.94q1.549,1.55,2.94,3.243T81.7,19.825q1.217,1.823,2.25,3.755t1.872,3.957q.839,2.027,1.475,4.122t1.064,4.246q.428,2.15.642,4.331t.215,4.372q0,2.193-.215,4.373t-.642,4.33q-.427,2.149-1.064,4.247T85.82,61.679q-.838,2.026-1.872,3.958T81.7,69.392q-1.218,1.821-2.608,3.516t-2.94,3.244q-1.549,1.55-3.243,2.94T69.391,81.7q-1.823,1.218-3.755,2.251t-3.958,1.871q-2.023.838-4.122,1.475T53.31,88.36q-2.15.427-4.33.643t-4.373.215q-2.191,0-4.373-.215T35.9,88.36q-2.15-.427-4.246-1.064t-4.122-1.475q-2.023-.838-3.957-1.871T19.824,81.7Q18,80.481,16.307,79.092t-3.243-2.94q-1.549-1.55-2.94-3.244T7.516,69.392Q6.3,67.57,5.266,65.637A43.045,43.045,0,0,1,3.4,61.677q-.838-2.023-1.475-4.121T.861,53.309q-.428-2.15-.642-4.33T0,44.606q0-2.191.215-4.372T.857,35.9q.428-2.149,1.064-4.246A43.644,43.644,0,0,1,3.4,27.537q.839-2.023,1.872-3.957t2.25-3.755Q8.74,18,10.13,16.308t2.94-3.243q1.549-1.549,3.243-2.94T19.83,7.518Q21.651,6.3,23.585,5.267T27.542,3.4q2.026-.837,4.122-1.475T35.91.856Q38.06.428,40.24.214T44.607,0Z" fill="#fff"/><path d="M64.434,72.305c-5.836,3.117-15.234.759-14.944-7.3V54.47H46.256V48.738h3.626V43.789l6.663-3.969h.294v8.918h7.5V54.47h-7.5c.527,5.355-2.673,15.809,6.811,12.054Z" fill="#292b2c"/><path d="M72.323,58.145H82.76C81.844,52.768,73.564,52.519,72.323,58.145ZM77.909,67.8a5.92,5.92,0,0,0,5.047-2.449l6.712.833c-3.9,11.631-25.476,9.124-24.645-5.292.067-17.694,27.345-16.6,25.037,1.862H72.226A5.419,5.419,0,0,0,77.909,67.8Z" fill="#292b2c"/><path d="M106.524,73.04l-5-6.811-4.8,6.811H88.591L97.7,60.987,88.689,48.738h8.427l4.8,6.467,4.557-6.467h8.281L105.787,60.4,115.2,73.039Z" fill="#292b2c"/><path d="M139.4,58.1V73.04h-7.35V59.223c.335-5.17-6.247-5.654-8.476-2.4V73.041h-7.35v-24.3h5.194l1.568,2.792C128.182,44.311,140.219,49.526,139.4,58.1Z" fill="#292b2c"/><path d="M161.449,60.889a5.945,5.945,0,1,0-11.857,0,5.945,5.945,0,1,0,11.857,0Zm-19.4,0c-.392-16.8,27.436-16.738,27,0,.432,16.74-27.4,16.795-27,0Z" fill="#292b2c"/><path d="M210.741,58.635V73.041h-7.349V59.076c.263-5.153-6.245-5.4-8.525-2.4.171-.011.077,15.827.1,16.365h-7.35V59.223c.334-5.17-6.247-5.654-8.477-2.4V73.041h-7.349v-24.3h5.194l1.568,2.792c2.866-4.793,11.776-4.149,14.5.245C198.838,44.333,211.683,49,210.741,58.635Z" fill="#292b2c"/><path d="M257.64,48.591l-.686,6.712c-2.907-.831-6.949-.469-8.134,2.5V73.041h-7.349v-24.3h5.194l1.568,2.842C249.768,48.345,254.358,47.536,257.64,48.591Z" fill="#292b2c"/><path d="M276.65,72.305c-5.835,3.117-15.233.759-14.944-7.3V54.47h-3.233V48.738H262.1V43.789l6.663-3.969h.295v8.918h7.5V54.47h-7.5c.526,5.355-2.674,15.809,6.81,12.054Z" fill="#292b2c"/><path d="M231.834,60.625c.248-8.756-11.821-8.888-11.7-.09C219.91,69.276,231.971,69.423,231.834,60.625Zm-18.512,0c-.529-11.6,12.389-16.384,18.421-8.919V48.568h6.817V72.593h-6.814V69.142C225.974,77.146,212.908,72.179,213.322,60.625Z" fill="#292b2c"/></g></svg>